---
title: 刘家昌.1996-新经典·旧情怀金装不朽经典金曲【环星】【WAV+CUE】
date: 2022-12-13 12:07:31
categories: WAV车载音乐、镜像
tags: 华语中文
---
# 刘家昌.1996-新经典·旧情怀金装不朽经典金曲【环星】【WAV+CUE】

TITLE "新经典·旧情怀 金装不朽经典金曲 [新加坡版]"
FILE "刘家昌.-.[新经典·旧情怀 金装不朽经典金曲](1996)[WAV].wav" WAVE
TRACK 01 AUDIO
TITLE "在雨中"
PERFORMER "刘家昌&尤雅"
INDEX 01 00:00:00
TRACK 02 AUDIO
TITLE "海鸥"
PERFORMER "刘家昌"
INDEX 00 04:34:25
INDEX 01 04:37:25
TRACK 03 AUDIO
TITLE "一簾幽梦"
PERFORMER "刘家昌"
INDEX 00 07:20:12
INDEX 01 07:22:12
TRACK 04 AUDIO
TITLE "我找到自己"
PERFORMER "刘家昌"
INDEX 00 11:21:37
INDEX 01 11:24:37
TRACK 05 AUDIO
TITLE "我是中国人"
PERFORMER "刘家昌"
INDEX 00 15:21:50
INDEX 01 15:23:50
TRACK 06 AUDIO
TITLE "中华民族"
PERFORMER "刘家昌"
INDEX 00 19:32:25
INDEX 01 19:34:25
TRACK 07 AUDIO
TITLE "珍重我的爱"
PERFORMER "刘家昌&刘艾灵"
INDEX 00 22:49:25
INDEX 01 22:52:25
TRACK 08 AUDIO
TITLE "月满西楼"
PERFORMER "刘家昌"
INDEX 00 26:43:37
INDEX 01 26:44:37
TRACK 09 AUDIO
TITLE "梅兰梅兰我爱你"
PERFORMER "刘家昌"
INDEX 00 29:53:25
INDEX 01 29:54:25
TRACK 10 AUDIO
TITLE "纯纯的爱"
PERFORMER "刘家昌"
INDEX 00 32:28:62
INDEX 01 32:30:62
TRACK 11 AUDIO
TITLE "爱"
PERFORMER "刘家昌"
INDEX 00 36:22:00
INDEX 01 36:23:00
TRACK 12 AUDIO
TITLE "只要为你活一天"
PERFORMER "刘家昌"
INDEX 00 39:25:50
INDEX 01 39:26:50
TRACK 13 AUDIO
TITLE "我俩在一起"
PERFORMER "刘家昌"
INDEX 00 43:06:50
INDEX 01 43:07:50
TRACK 14 AUDIO
TITLE "烟雨斜阳"
PERFORMER "刘家昌"
INDEX 00 45:30:00
INDEX 01 45:31:00
TRACK 15 AUDIO
TITLE "雾"
PERFORMER "刘家昌"
INDEX 00 49:11:50
INDEX 01 49:13:50
TRACK 16 AUDIO
TITLE "你我的家"
PERFORMER "刘家昌&王虹"
INDEX 00 54:57:25
INDEX 01 54:58:25
TRACK 17 AUDIO
TITLE "初恋"
PERFORMER "刘家昌"
INDEX 00 58:15:00
INDEX 01 58:17:00
TRACK 18 AUDIO
TITLE "冬夜"
PERFORMER "刘家昌"
INDEX 00 61:50:37
INDEX 01 61:51:37
TRACK 19 AUDIO
TITLE "回忆"
PERFORMER "刘家昌&刘艾灵"
INDEX 00 64:18:37
INDEX 01 64:21:37
TRACK 20 AUDIO
TITLE "丝雨长巷"
PERFORMER "刘家昌"
INDEX 00 67:26:12
INDEX 01 67:29:12
刘家昌.1996 - 新经典·旧情怀 金装不朽经典金曲【环星】【WAV+CUE】.rar: https://url27.ctfile.com/f/9388027-746964520-b85968?p=559675
(访问密码: 559675)
1993 刘佳慧 - ''I'', selfree（台湾滚石K1首版）[WAV+CUE].rar: https://url27.ctfile.com/f/9388027-498881636-aec31c?p=559675
(访问密码: 559675)
【民谣摇滚】刘铮《到底我要等到什么时候》 1990 [FLAC+CUE/整轨].zip: https://url27.ctfile.com/f/9388027-539179308-ab0032?p=559675
(访问密码: 559675)
刘汉乐.1991 - 陪著你凝望你仍是太优美【新艺宝】【WAV+CUE】.rar: https://url27.ctfile.com/f/9388027-607385526-6f9de7?p=559675
(访问密码: 559675)
刘浩龙.2004 - Singing In The Ring 在拳击场上唱歌【正东】【FLAC分轨】.rar: https://url27.ctfile.com/f/9388027-595401261-382ba0?p=559675
(访问密码: 559675)
刘浩龙.2006 - ALL THE BEST【正东】【WAV+CUE】.rar: https://url27.ctfile.com/f/9388027-595402052-cb0148?p=559675
(访问密码: 559675)
刘力扬.2008 - 我就是这样【华研国际】【WAV+CUE】.rar: https://url27.ctfile.com/f/9388027-503868743-1868f7?p=559675
(访问密码: 559675)
刘文娟.1994 - 失恋餐厅【乐意唱片】【WAV+CUE】.rar: https://url27.ctfile.com/f/9388027-521588177-754eaf?p=559675
(访问密码: 559675)
刘雅丽.1996 - 预感【EMI百代】【WAV+CUE】.rar: https://url27.ctfile.com/f/9388027-568585997-fc4e4e?p=559675
(访问密码: 559675)
刘雅丽.2003 - 约会【音乐堡】【WAV+CUE】.rar: https://url27.ctfile.com/f/9388027-503419891-192c67?p=559675
(访问密码: 559675)
刘玉翠1992 - NOT SO SORRY【新艺宝】【WAV+CUE】.rar: https://url27.ctfile.com/f/9388027-690145102-48f1d8?p=559675
(访问密码: 559675)
刘德华: https://url27.ctfile.com/d/9388027-29956056-1bd7a4?p=559675
(访问密码: 559675)
刘若英: https://url27.ctfile.com/d/9388027-33129519-bccb22?p=559675
(访问密码: 559675)
刘文正: https://url27.ctfile.com/d/9388027-35372114-1aef01?p=559675
(访问密码: 559675)
刘家昌: https://url27.ctfile.com/d/9388027-35499099-e5143d?p=559675
(访问密码: 559675)
刘美君: https://url27.ctfile.com/d/9388027-43778649-e90e18?p=559675
(访问密码: 559675)
刘小慧: https://url27.ctfile.com/d/9388027-43778883-24f78a?p=559675
(访问密码: 559675)
刘惜君: https://url27.ctfile.com/d/9388027-43965663-95414f?p=559675
(访问密码: 559675)
刘秋仪: https://url27.ctfile.com/d/9388027-44159916-79da9c?p=559675
(访问密码: 559675)
刘凤屏: https://url27.ctfile.com/d/9388027-44159919-ce6013?p=559675
(访问密码: 559675)
刘彩玉: https://url27.ctfile.com/d/9388027-44168417-d6b511?p=559675
(访问密码: 559675)
刘锡明: https://url27.ctfile.com/d/9388027-52751268-380f46?p=559675
(访问密码: 559675)
刘珺儿: https://url27.ctfile.com/d/9388027-52751271-feaf44?p=559675
(访问密码: 559675)
原文：[链接](https://blog.sina.com.cn/s/blog_1647c7e76010310l6.html)